<svg xmlns="http://www.w3.org/2000/svg" xmlns:xlink="http://www.w3.org/1999/xlink" width="516" zoomAndPan="magnify" viewBox="0 0 386.88 125.999998" height="168" preserveAspectRatio="xMidYMid meet" version="1.0"><defs><g/><clipPath id="95a0fc6a07"><path d="M 0 0.582031 L 124.65625 0.582031 L 124.65625 125.238281 L 0 125.238281 Z M 0 0.582031 " clip-rule="nonzero"/></clipPath><clipPath id="59a69235dd"><path d="M 62.328125 0.582031 C 27.90625 0.582031 0 28.484375 0 62.910156 C 0 97.332031 27.90625 125.238281 62.328125 125.238281 C 96.75 125.238281 124.65625 97.332031 124.65625 62.910156 C 124.65625 28.484375 96.75 0.582031 62.328125 0.582031 Z M 62.328125 0.582031 " clip-rule="nonzero"/></clipPath><clipPath id="2c66f61903"><path d="M 23.546875 24.128906 L 100.773438 24.128906 L 100.773438 84 L 23.546875 84 Z M 23.546875 24.128906 " clip-rule="nonzero"/></clipPath><clipPath id="777ee162c9"><path d="M 41 85 L 58 85 L 58 101.355469 L 41 101.355469 Z M 41 85 " clip-rule="nonzero"/></clipPath><clipPath id="6d0b2d99d8"><path d="M 72 85 L 88 85 L 88 101.355469 L 72 101.355469 Z M 72 85 " clip-rule="nonzero"/></clipPath><clipPath id="97dd7e11b8"><path d="M 55.757812 42.855469 L 78.253906 42.855469 L 78.253906 65.347656 L 55.757812 65.347656 Z M 55.757812 42.855469 " clip-rule="nonzero"/></clipPath><clipPath id="16234cd267"><path d="M 67.003906 42.855469 C 60.792969 42.855469 55.757812 47.890625 55.757812 54.101562 C 55.757812 60.3125 60.792969 65.347656 67.003906 65.347656 C 73.21875 65.347656 78.253906 60.3125 78.253906 54.101562 C 78.253906 47.890625 73.21875 42.855469 67.003906 42.855469 Z M 67.003906 42.855469 " clip-rule="nonzero"/></clipPath><clipPath id="fa2cd08dab"><path d="M 60.4375 48.558594 L 73.933594 48.558594 L 73.933594 56 L 60.4375 56 Z M 60.4375 48.558594 " clip-rule="nonzero"/></clipPath><clipPath id="dfed1788f2"><path d="M 63 55 L 72 55 L 72 59.804688 L 63 59.804688 Z M 63 55 " clip-rule="nonzero"/></clipPath></defs><g clip-path="url(#95a0fc6a07)"><g clip-path="url(#59a69235dd)"><path fill="#000000" d="M 0 0.582031 L 124.65625 0.582031 L 124.65625 125.238281 L 0 125.238281 Z M 0 0.582031 " fill-opacity="1" fill-rule="nonzero"/></g></g><g clip-path="url(#2c66f61903)"><path fill="#ffffff" d="M 44.140625 73.039062 L 83.660156 73.039062 C 84.289062 73.042969 84.910156 72.992188 85.527344 72.886719 C 86.144531 72.785156 86.75 72.628906 87.339844 72.425781 C 87.929688 72.21875 88.5 71.964844 89.050781 71.664062 C 89.597656 71.363281 90.117188 71.015625 90.609375 70.625 C 91.097656 70.238281 91.550781 69.808594 91.96875 69.34375 C 92.386719 68.875 92.761719 68.375 93.09375 67.847656 C 93.425781 67.316406 93.714844 66.761719 93.953125 66.183594 C 94.191406 65.605469 94.378906 65.011719 94.519531 64.398438 L 100.710938 37.578125 C 100.753906 37.390625 100.777344 37.199219 100.777344 37.003906 C 100.777344 36.8125 100.753906 36.621094 100.710938 36.433594 C 100.671875 36.242188 100.605469 36.0625 100.523438 35.886719 C 100.4375 35.710938 100.335938 35.546875 100.214844 35.398438 C 100.09375 35.246094 99.960938 35.109375 99.808594 34.988281 C 99.65625 34.867188 99.492188 34.765625 99.320312 34.679688 C 99.144531 34.597656 98.964844 34.535156 98.773438 34.492188 C 98.585938 34.449219 98.394531 34.425781 98.199219 34.425781 L 38.304688 34.425781 L 36.351562 26.113281 C 36.285156 25.832031 36.175781 25.566406 36.019531 25.324219 C 35.863281 25.078125 35.671875 24.863281 35.445312 24.683594 C 35.21875 24.503906 34.964844 24.367188 34.691406 24.273438 C 34.417969 24.175781 34.136719 24.128906 33.84375 24.128906 L 26.121094 24.128906 C 25.78125 24.128906 25.453125 24.195312 25.136719 24.324219 C 24.824219 24.457031 24.542969 24.640625 24.300781 24.882812 C 24.0625 25.125 23.875 25.402344 23.746094 25.71875 C 23.613281 26.035156 23.546875 26.363281 23.546875 26.703125 C 23.546875 27.042969 23.613281 27.375 23.746094 27.6875 C 23.875 28.003906 24.0625 28.28125 24.300781 28.523438 C 24.542969 28.765625 24.824219 28.949219 25.136719 29.082031 C 25.453125 29.210938 25.78125 29.277344 26.121094 29.277344 L 31.808594 29.277344 L 41.054688 68.550781 C 40.652344 68.726562 40.269531 68.9375 39.902344 69.179688 C 39.535156 69.421875 39.195312 69.695312 38.875 69.996094 C 38.554688 70.296875 38.265625 70.621094 38 70.972656 C 37.738281 71.324219 37.503906 71.695312 37.304688 72.085938 C 37.105469 72.476562 36.9375 72.878906 36.808594 73.300781 C 36.675781 73.71875 36.582031 74.144531 36.523438 74.578125 C 36.460938 75.015625 36.441406 75.453125 36.457031 75.890625 C 36.472656 76.328125 36.527344 76.761719 36.617188 77.191406 C 36.703125 77.621094 36.832031 78.042969 36.992188 78.449219 C 37.152344 78.859375 37.347656 79.25 37.574219 79.625 C 37.804688 80 38.0625 80.351562 38.347656 80.683594 C 38.636719 81.015625 38.953125 81.320312 39.292969 81.597656 C 39.632812 81.875 39.992188 82.121094 40.375 82.335938 C 40.757812 82.550781 41.15625 82.734375 41.566406 82.882812 C 41.980469 83.03125 42.402344 83.144531 42.835938 83.21875 C 43.269531 83.296875 43.703125 83.335938 44.140625 83.335938 L 93.050781 83.335938 C 93.394531 83.335938 93.722656 83.269531 94.039062 83.140625 C 94.351562 83.007812 94.632812 82.824219 94.871094 82.582031 C 95.113281 82.339844 95.300781 82.0625 95.429688 81.746094 C 95.5625 81.429688 95.625 81.101562 95.625 80.761719 C 95.625 80.421875 95.5625 80.09375 95.429688 79.777344 C 95.300781 79.460938 95.113281 79.183594 94.871094 78.941406 C 94.632812 78.699219 94.351562 78.515625 94.039062 78.382812 C 93.722656 78.253906 93.394531 78.1875 93.050781 78.1875 L 44.140625 78.1875 C 43.800781 78.1875 43.472656 78.121094 43.15625 77.992188 C 42.84375 77.859375 42.5625 77.675781 42.320312 77.433594 C 42.082031 77.191406 41.894531 76.914062 41.765625 76.597656 C 41.632812 76.28125 41.566406 75.953125 41.566406 75.613281 C 41.566406 75.273438 41.632812 74.945312 41.765625 74.628906 C 41.894531 74.3125 42.082031 74.035156 42.320312 73.792969 C 42.5625 73.550781 42.84375 73.367188 43.15625 73.234375 C 43.472656 73.105469 43.800781 73.039062 44.140625 73.039062 Z M 94.964844 39.574219 L 89.503906 63.242188 C 89.351562 63.902344 89.097656 64.523438 88.738281 65.097656 C 88.375 65.671875 87.929688 66.171875 87.398438 66.59375 C 86.867188 67.015625 86.28125 67.339844 85.640625 67.5625 C 85 67.785156 84.339844 67.894531 83.660156 67.890625 L 46.179688 67.890625 L 39.507812 39.574219 Z M 94.964844 39.574219 " fill-opacity="1" fill-rule="nonzero"/></g><g clip-path="url(#777ee162c9)"><path fill="#ffffff" d="M 49.289062 85.910156 C 48.785156 85.910156 48.28125 85.960938 47.785156 86.058594 C 47.285156 86.15625 46.804688 86.304688 46.335938 86.496094 C 45.867188 86.691406 45.421875 86.929688 45 87.210938 C 44.578125 87.492188 44.1875 87.8125 43.828125 88.171875 C 43.472656 88.53125 43.152344 88.921875 42.871094 89.34375 C 42.585938 89.765625 42.351562 90.207031 42.15625 90.675781 C 41.960938 91.144531 41.816406 91.628906 41.714844 92.125 C 41.617188 92.625 41.566406 93.125 41.566406 93.632812 C 41.566406 94.140625 41.617188 94.640625 41.714844 95.140625 C 41.816406 95.636719 41.960938 96.121094 42.15625 96.589844 C 42.351562 97.054688 42.585938 97.5 42.871094 97.921875 C 43.152344 98.34375 43.472656 98.734375 43.828125 99.09375 C 44.1875 99.453125 44.578125 99.773438 45 100.054688 C 45.421875 100.335938 45.867188 100.574219 46.335938 100.765625 C 46.804688 100.960938 47.285156 101.109375 47.785156 101.207031 C 48.28125 101.304688 48.785156 101.355469 49.289062 101.355469 C 49.796875 101.355469 50.300781 101.304688 50.796875 101.207031 C 51.292969 101.109375 51.777344 100.960938 52.246094 100.765625 C 52.714844 100.574219 53.160156 100.335938 53.582031 100.054688 C 54.003906 99.773438 54.394531 99.453125 54.75 99.09375 C 55.109375 98.734375 55.429688 98.34375 55.710938 97.921875 C 55.992188 97.5 56.230469 97.054688 56.425781 96.589844 C 56.621094 96.121094 56.765625 95.636719 56.863281 95.140625 C 56.964844 94.640625 57.011719 94.140625 57.011719 93.632812 C 57.011719 93.125 56.964844 92.625 56.863281 92.125 C 56.765625 91.628906 56.621094 91.144531 56.425781 90.675781 C 56.230469 90.207031 55.992188 89.765625 55.710938 89.34375 C 55.429688 88.921875 55.109375 88.53125 54.75 88.171875 C 54.394531 87.8125 54.003906 87.492188 53.582031 87.210938 C 53.160156 86.929688 52.714844 86.691406 52.246094 86.496094 C 51.777344 86.304688 51.292969 86.15625 50.796875 86.058594 C 50.300781 85.960938 49.796875 85.910156 49.289062 85.910156 Z M 49.289062 96.207031 C 48.949219 96.207031 48.621094 96.140625 48.304688 96.011719 C 47.988281 95.878906 47.710938 95.695312 47.46875 95.453125 C 47.230469 95.210938 47.042969 94.933594 46.914062 94.617188 C 46.78125 94.300781 46.714844 93.972656 46.714844 93.632812 C 46.714844 93.292969 46.78125 92.964844 46.914062 92.648438 C 47.042969 92.332031 47.230469 92.054688 47.46875 91.8125 C 47.710938 91.570312 47.988281 91.386719 48.304688 91.253906 C 48.621094 91.125 48.949219 91.058594 49.289062 91.058594 C 49.632812 91.058594 49.960938 91.125 50.277344 91.253906 C 50.589844 91.386719 50.871094 91.570312 51.109375 91.8125 C 51.351562 92.054688 51.539062 92.332031 51.667969 92.648438 C 51.800781 92.964844 51.863281 93.292969 51.863281 93.632812 C 51.863281 93.972656 51.800781 94.300781 51.667969 94.617188 C 51.539062 94.933594 51.351562 95.210938 51.109375 95.453125 C 50.871094 95.695312 50.589844 95.878906 50.277344 96.011719 C 49.960938 96.140625 49.632812 96.207031 49.289062 96.207031 Z M 49.289062 96.207031 " fill-opacity="1" fill-rule="nonzero"/></g><g clip-path="url(#6d0b2d99d8)"><path fill="#ffffff" d="M 80.179688 85.910156 C 79.675781 85.910156 79.171875 85.960938 78.675781 86.058594 C 78.175781 86.15625 77.695312 86.304688 77.226562 86.496094 C 76.757812 86.691406 76.3125 86.929688 75.890625 87.210938 C 75.46875 87.492188 75.078125 87.8125 74.71875 88.171875 C 74.363281 88.53125 74.042969 88.921875 73.761719 89.34375 C 73.476562 89.765625 73.242188 90.207031 73.046875 90.675781 C 72.851562 91.144531 72.707031 91.628906 72.605469 92.125 C 72.507812 92.625 72.457031 93.125 72.457031 93.632812 C 72.457031 94.140625 72.507812 94.640625 72.605469 95.140625 C 72.707031 95.636719 72.851562 96.121094 73.046875 96.589844 C 73.242188 97.054688 73.476562 97.5 73.761719 97.921875 C 74.042969 98.34375 74.363281 98.734375 74.71875 99.09375 C 75.078125 99.453125 75.46875 99.773438 75.890625 100.054688 C 76.3125 100.335938 76.757812 100.574219 77.226562 100.765625 C 77.695312 100.960938 78.175781 101.109375 78.675781 101.207031 C 79.171875 101.304688 79.675781 101.355469 80.179688 101.355469 C 80.6875 101.355469 81.191406 101.304688 81.6875 101.207031 C 82.183594 101.109375 82.667969 100.960938 83.136719 100.765625 C 83.605469 100.574219 84.050781 100.335938 84.472656 100.054688 C 84.894531 99.773438 85.285156 99.453125 85.640625 99.09375 C 86 98.734375 86.320312 98.34375 86.601562 97.921875 C 86.882812 97.5 87.121094 97.054688 87.316406 96.589844 C 87.511719 96.121094 87.65625 95.636719 87.753906 95.140625 C 87.855469 94.640625 87.902344 94.140625 87.902344 93.632812 C 87.902344 93.125 87.855469 92.625 87.753906 92.125 C 87.65625 91.628906 87.511719 91.144531 87.316406 90.675781 C 87.121094 90.207031 86.882812 89.765625 86.601562 89.34375 C 86.320312 88.921875 86 88.53125 85.640625 88.171875 C 85.285156 87.8125 84.894531 87.492188 84.472656 87.210938 C 84.050781 86.929688 83.605469 86.691406 83.136719 86.496094 C 82.667969 86.304688 82.183594 86.15625 81.6875 86.058594 C 81.191406 85.960938 80.6875 85.910156 80.179688 85.910156 Z M 80.179688 96.207031 C 79.839844 96.207031 79.511719 96.140625 79.195312 96.011719 C 78.878906 95.878906 78.601562 95.695312 78.359375 95.453125 C 78.121094 95.210938 77.933594 94.933594 77.804688 94.617188 C 77.671875 94.300781 77.605469 93.972656 77.605469 93.632812 C 77.605469 93.292969 77.671875 92.964844 77.804688 92.648438 C 77.933594 92.332031 78.121094 92.054688 78.359375 91.8125 C 78.601562 91.570312 78.878906 91.386719 79.195312 91.253906 C 79.511719 91.125 79.839844 91.058594 80.179688 91.058594 C 80.523438 91.058594 80.851562 91.125 81.167969 91.253906 C 81.480469 91.386719 81.761719 91.570312 82 91.8125 C 82.242188 92.054688 82.429688 92.332031 82.558594 92.648438 C 82.691406 92.964844 82.753906 93.292969 82.753906 93.632812 C 82.753906 93.972656 82.691406 94.300781 82.558594 94.617188 C 82.429688 94.933594 82.242188 95.210938 82 95.453125 C 81.761719 95.695312 81.480469 95.878906 81.167969 96.011719 C 80.851562 96.140625 80.523438 96.207031 80.179688 96.207031 Z M 80.179688 96.207031 " fill-opacity="1" fill-rule="nonzero"/></g><g clip-path="url(#97dd7e11b8)"><g clip-path="url(#16234cd267)"><path fill="#ffffff" d="M 55.757812 42.855469 L 78.253906 42.855469 L 78.253906 65.347656 L 55.757812 65.347656 Z M 55.757812 42.855469 " fill-opacity="1" fill-rule="nonzero"/></g></g><g clip-path="url(#fa2cd08dab)"><path fill="#000000" d="M 66.6875 48.878906 L 66.8125 48.761719 C 67.023438 48.558594 67.363281 48.566406 67.566406 48.777344 C 67.570312 48.777344 67.570312 48.78125 67.574219 48.785156 L 73.703125 54.609375 C 73.914062 54.8125 73.921875 55.144531 73.714844 55.355469 C 73.511719 55.566406 73.175781 55.574219 72.960938 55.371094 L 67.183594 49.875 L 61.402344 55.371094 C 61.191406 55.574219 60.851562 55.566406 60.648438 55.355469 C 60.441406 55.144531 60.449219 54.8125 60.660156 54.609375 Z M 66.6875 48.878906 " fill-opacity="1" fill-rule="evenodd"/></g><path fill="#000000" d="M 66.714844 52.4375 L 66.835938 52.320312 C 67.035156 52.128906 67.351562 52.136719 67.539062 52.332031 C 67.542969 52.335938 67.542969 52.335938 67.546875 52.339844 L 72.136719 56.703125 C 72.332031 56.890625 72.339844 57.199219 72.148438 57.394531 C 71.960938 57.589844 71.644531 57.597656 71.449219 57.410156 L 67.183594 53.351562 L 62.914062 57.410156 C 62.71875 57.597656 62.402344 57.589844 62.214844 57.394531 C 62.023438 57.199219 62.03125 56.890625 62.226562 56.703125 Z M 66.714844 52.4375 " fill-opacity="1" fill-rule="evenodd"/><g clip-path="url(#dfed1788f2)"><path fill="#000000" d="M 66.738281 55.804688 L 66.859375 55.6875 C 67.046875 55.515625 67.339844 55.519531 67.515625 55.703125 C 67.515625 55.703125 67.519531 55.703125 67.519531 55.707031 L 70.957031 58.972656 C 71.140625 59.148438 71.148438 59.4375 70.96875 59.621094 C 70.792969 59.800781 70.5 59.808594 70.316406 59.632812 L 67.183594 56.652344 L 64.046875 59.632812 C 63.863281 59.808594 63.570312 59.800781 63.394531 59.621094 C 63.214844 59.4375 63.222656 59.148438 63.40625 58.972656 Z M 66.738281 55.804688 " fill-opacity="1" fill-rule="evenodd"/></g><g fill="#000000" fill-opacity="1"><g transform="translate(130.320485, 80.170236)"><g><path d="M 8.828125 -15.484375 L 8.828125 -3.1875 L 25.578125 -3.1875 L 25.578125 0 L 4.96875 0 L 4.96875 -32.859375 L 25.21875 -32.859375 L 25.21875 -29.671875 L 8.828125 -29.671875 L 8.828125 -18.671875 L 23.28125 -18.671875 L 23.28125 -15.484375 Z M 8.828125 -15.484375 "/></g></g></g><g fill="#000000" fill-opacity="1"><g transform="translate(158.075854, 80.170236)"><g><path d="M 14.234375 0.46875 C 12.046875 0.46875 10.082031 -0.0234375 8.34375 -1.015625 C 6.601562 -2.015625 5.226562 -3.484375 4.21875 -5.421875 C 3.21875 -7.367188 2.71875 -9.691406 2.71875 -12.390625 C 2.71875 -15.097656 3.21875 -17.421875 4.21875 -19.359375 C 5.226562 -21.304688 6.601562 -22.773438 8.34375 -23.765625 C 10.082031 -24.765625 12.046875 -25.265625 14.234375 -25.265625 C 16.847656 -25.265625 18.929688 -24.769531 20.484375 -23.78125 C 22.035156 -22.789062 23.15625 -21.472656 23.84375 -19.828125 L 21.359375 -18.03125 L 20.90625 -18.03125 C 20.226562 -19.394531 19.359375 -20.394531 18.296875 -21.03125 C 17.242188 -21.664062 15.890625 -21.984375 14.234375 -21.984375 C 12.703125 -21.984375 11.359375 -21.625 10.203125 -20.90625 C 9.046875 -20.1875 8.148438 -19.109375 7.515625 -17.671875 C 6.878906 -16.234375 6.5625 -14.472656 6.5625 -12.390625 C 6.5625 -10.316406 6.882812 -8.5625 7.53125 -7.125 C 8.175781 -5.695312 9.070312 -4.617188 10.21875 -3.890625 C 11.363281 -3.171875 12.703125 -2.8125 14.234375 -2.8125 C 15.953125 -2.8125 17.375 -3.195312 18.5 -3.96875 C 19.632812 -4.75 20.523438 -5.984375 21.171875 -7.671875 L 21.640625 -7.671875 L 24.046875 -6.25 C 23.398438 -4.164062 22.25 -2.523438 20.59375 -1.328125 C 18.9375 -0.128906 16.816406 0.46875 14.234375 0.46875 Z M 14.234375 0.46875 "/></g></g></g><g fill="#000000" fill-opacity="1"><g transform="translate(183.628773, 80.170236)"><g><path d="M 14.234375 0.46875 C 11.890625 0.46875 9.851562 -0.0234375 8.125 -1.015625 C 6.394531 -2.003906 5.0625 -3.457031 4.125 -5.375 C 3.1875 -7.300781 2.71875 -9.640625 2.71875 -12.390625 C 2.71875 -15.128906 3.1875 -17.460938 4.125 -19.390625 C 5.0625 -21.328125 6.394531 -22.789062 8.125 -23.78125 C 9.851562 -24.769531 11.890625 -25.265625 14.234375 -25.265625 C 16.566406 -25.265625 18.597656 -24.769531 20.328125 -23.78125 C 22.054688 -22.789062 23.390625 -21.328125 24.328125 -19.390625 C 25.265625 -17.460938 25.734375 -15.128906 25.734375 -12.390625 C 25.734375 -9.640625 25.265625 -7.300781 24.328125 -5.375 C 23.390625 -3.457031 22.054688 -2.003906 20.328125 -1.015625 C 18.597656 -0.0234375 16.566406 0.46875 14.234375 0.46875 Z M 14.234375 -2.8125 C 16.703125 -2.8125 18.59375 -3.585938 19.90625 -5.140625 C 21.21875 -6.703125 21.875 -9.117188 21.875 -12.390625 C 21.875 -15.671875 21.21875 -18.085938 19.90625 -19.640625 C 18.59375 -21.203125 16.703125 -21.984375 14.234375 -21.984375 C 11.753906 -21.984375 9.851562 -21.195312 8.53125 -19.625 C 7.21875 -18.0625 6.5625 -15.648438 6.5625 -12.390625 C 6.5625 -9.117188 7.21875 -6.703125 8.53125 -5.140625 C 9.851562 -3.585938 11.753906 -2.8125 14.234375 -2.8125 Z M 14.234375 -2.8125 "/></g></g></g><g fill="#000000" fill-opacity="1"><g transform="translate(212.080828, 80.170236)"><g><path d="M 4.3125 0 L 4.3125 -24.796875 L 7.796875 -24.796875 L 7.796875 -21.125 L 8.265625 -21.03125 C 9.109375 -22.425781 10.125 -23.476562 11.3125 -24.1875 C 12.507812 -24.90625 13.9375 -25.265625 15.59375 -25.265625 C 17.507812 -25.265625 18.992188 -24.898438 20.046875 -24.171875 C 21.097656 -23.441406 21.914062 -22.269531 22.5 -20.65625 L 22.96875 -20.65625 C 23.820312 -22.164062 24.875 -23.3125 26.125 -24.09375 C 27.375 -24.875 28.914062 -25.265625 30.75 -25.265625 C 33.289062 -25.265625 35.1875 -24.570312 36.4375 -23.1875 C 37.695312 -21.8125 38.328125 -19.71875 38.328125 -16.90625 L 38.328125 0 L 34.65625 0 L 34.65625 -16.8125 C 34.65625 -18.613281 34.273438 -19.941406 33.515625 -20.796875 C 32.765625 -21.648438 31.550781 -22.078125 29.875 -22.078125 C 27.894531 -22.078125 26.28125 -21.351562 25.03125 -19.90625 C 23.78125 -18.46875 23.15625 -16.101562 23.15625 -12.8125 L 23.15625 0 L 19.484375 0 L 19.484375 -16.8125 C 19.484375 -18.613281 19.101562 -19.941406 18.34375 -20.796875 C 17.59375 -21.648438 16.378906 -22.078125 14.703125 -22.078125 C 12.722656 -22.078125 11.109375 -21.378906 9.859375 -19.984375 C 8.609375 -18.585938 7.984375 -16.320312 7.984375 -13.1875 L 7.984375 0 Z M 4.3125 0 "/></g></g></g><g fill="#000000" fill-opacity="1"><g transform="translate(254.331906, 80.170236)"><g><path d="M 4.3125 0 L 4.3125 -24.796875 L 7.796875 -24.796875 L 7.796875 -21.125 L 8.265625 -21.03125 C 9.109375 -22.425781 10.125 -23.476562 11.3125 -24.1875 C 12.507812 -24.90625 13.9375 -25.265625 15.59375 -25.265625 C 17.507812 -25.265625 18.992188 -24.898438 20.046875 -24.171875 C 21.097656 -23.441406 21.914062 -22.269531 22.5 -20.65625 L 22.96875 -20.65625 C 23.820312 -22.164062 24.875 -23.3125 26.125 -24.09375 C 27.375 -24.875 28.914062 -25.265625 30.75 -25.265625 C 33.289062 -25.265625 35.1875 -24.570312 36.4375 -23.1875 C 37.695312 -21.8125 38.328125 -19.71875 38.328125 -16.90625 L 38.328125 0 L 34.65625 0 L 34.65625 -16.8125 C 34.65625 -18.613281 34.273438 -19.941406 33.515625 -20.796875 C 32.765625 -21.648438 31.550781 -22.078125 29.875 -22.078125 C 27.894531 -22.078125 26.28125 -21.351562 25.03125 -19.90625 C 23.78125 -18.46875 23.15625 -16.101562 23.15625 -12.8125 L 23.15625 0 L 19.484375 0 L 19.484375 -16.8125 C 19.484375 -18.613281 19.101562 -19.941406 18.34375 -20.796875 C 17.59375 -21.648438 16.378906 -22.078125 14.703125 -22.078125 C 12.722656 -22.078125 11.109375 -21.378906 9.859375 -19.984375 C 8.609375 -18.585938 7.984375 -16.320312 7.984375 -13.1875 L 7.984375 0 Z M 4.3125 0 "/></g></g></g><g fill="#000000" fill-opacity="1"><g transform="translate(296.599202, 80.170236)"><g><path d="M 16.96875 -32.859375 C 19.320312 -32.859375 21.332031 -32.425781 23 -31.5625 C 24.675781 -30.707031 25.941406 -29.503906 26.796875 -27.953125 C 27.648438 -26.398438 28.078125 -24.597656 28.078125 -22.546875 C 28.078125 -20.492188 27.648438 -18.691406 26.796875 -17.140625 C 25.941406 -15.597656 24.675781 -14.394531 23 -13.53125 C 21.332031 -12.675781 19.320312 -12.25 16.96875 -12.25 L 10.765625 -12.25 L 10.765625 0 L 4.265625 0 L 4.265625 -32.859375 Z M 16.109375 -17.390625 C 19.722656 -17.390625 21.53125 -19.109375 21.53125 -22.546875 C 21.53125 -25.992188 19.722656 -27.71875 16.109375 -27.71875 L 10.765625 -27.71875 L 10.765625 -17.390625 Z M 16.109375 -17.390625 "/></g></g></g><g fill="#000000" fill-opacity="1"><g transform="translate(326.624436, 80.170236)"><g><path d="M 3.578125 0 L 3.578125 -24.796875 L 9.625 -24.796875 L 9.625 -21.109375 L 10.09375 -21.015625 C 10.6875 -22.390625 11.46875 -23.398438 12.4375 -24.046875 C 13.414062 -24.691406 14.601562 -25.015625 16 -25.015625 C 17.40625 -25.015625 18.476562 -24.773438 19.21875 -24.296875 L 18.15625 -18.921875 L 17.6875 -18.828125 C 17.28125 -18.992188 16.890625 -19.113281 16.515625 -19.1875 C 16.140625 -19.269531 15.6875 -19.3125 15.15625 -19.3125 C 13.414062 -19.3125 12.085938 -18.695312 11.171875 -17.46875 C 10.253906 -16.25 9.796875 -14.289062 9.796875 -11.59375 L 9.796875 0 Z M 3.578125 0 "/></g></g></g><g fill="#000000" fill-opacity="1"><g transform="translate(346.064432, 80.170236)"><g><path d="M 14.40625 0.46875 C 11.976562 0.46875 9.847656 -0.0234375 8.015625 -1.015625 C 6.179688 -2.015625 4.753906 -3.476562 3.734375 -5.40625 C 2.722656 -7.332031 2.21875 -9.660156 2.21875 -12.390625 C 2.21875 -15.109375 2.722656 -17.4375 3.734375 -19.375 C 4.753906 -21.3125 6.179688 -22.773438 8.015625 -23.765625 C 9.847656 -24.765625 11.976562 -25.265625 14.40625 -25.265625 C 16.832031 -25.265625 18.960938 -24.765625 20.796875 -23.765625 C 22.640625 -22.773438 24.066406 -21.3125 25.078125 -19.375 C 26.097656 -17.4375 26.609375 -15.109375 26.609375 -12.390625 C 26.609375 -9.660156 26.097656 -7.332031 25.078125 -5.40625 C 24.066406 -3.476562 22.640625 -2.015625 20.796875 -1.015625 C 18.960938 -0.0234375 16.832031 0.46875 14.40625 0.46875 Z M 14.40625 -4.8125 C 18.257812 -4.8125 20.1875 -7.335938 20.1875 -12.390625 C 20.1875 -15.003906 19.691406 -16.921875 18.703125 -18.140625 C 17.710938 -19.367188 16.28125 -19.984375 14.40625 -19.984375 C 10.550781 -19.984375 8.625 -17.453125 8.625 -12.390625 C 8.625 -7.335938 10.550781 -4.8125 14.40625 -4.8125 Z M 14.40625 -4.8125 "/></g></g></g></svg>