<svg xmlns="http://www.w3.org/2000/svg" xmlns:xlink="http://www.w3.org/1999/xlink" width="500" zoomAndPan="magnify" viewBox="0 0 375 374.999991" height="500" preserveAspectRatio="xMidYMid meet" version="1.0"><defs><g/><clipPath id="eb7c58a3c2"><path d="M 0 124.3125 L 124.695312 124.3125 L 124.695312 249.003906 L 0 249.003906 Z M 0 124.3125 " clip-rule="nonzero"/></clipPath><clipPath id="d86de80006"><path d="M 62.347656 124.3125 C 27.914062 124.3125 0 152.226562 0 186.660156 C 0 221.09375 27.914062 249.003906 62.347656 249.003906 C 96.78125 249.003906 124.695312 221.09375 124.695312 186.660156 C 124.695312 152.226562 96.78125 124.3125 62.347656 124.3125 Z M 62.347656 124.3125 " clip-rule="nonzero"/></clipPath><clipPath id="58cf58bce7"><path d="M 23.554688 147.867188 L 101.257812 147.867188 L 101.257812 208 L 23.554688 208 Z M 23.554688 147.867188 " clip-rule="nonzero"/></clipPath><clipPath id="a15ad823eb"><path d="M 41 210 L 58 210 L 58 225.570312 L 41 225.570312 Z M 41 210 " clip-rule="nonzero"/></clipPath><clipPath id="19c2236445"><path d="M 72 210 L 89 210 L 89 225.570312 L 72 225.570312 Z M 72 210 " clip-rule="nonzero"/></clipPath><clipPath id="d6be124660"><path d="M 55.777344 166.597656 L 78.277344 166.597656 L 78.277344 189.097656 L 55.777344 189.097656 Z M 55.777344 166.597656 " clip-rule="nonzero"/></clipPath><clipPath id="b6392dfe8b"><path d="M 67.027344 166.597656 C 60.8125 166.597656 55.777344 171.636719 55.777344 177.847656 C 55.777344 184.0625 60.8125 189.097656 67.027344 189.097656 C 73.238281 189.097656 78.277344 184.0625 78.277344 177.847656 C 78.277344 171.636719 73.238281 166.597656 67.027344 166.597656 Z M 67.027344 166.597656 " clip-rule="nonzero"/></clipPath><clipPath id="c062e4bd83"><path d="M 60.457031 172.304688 L 73.40625 172.304688 L 73.40625 180 L 60.457031 180 Z M 60.457031 172.304688 " clip-rule="nonzero"/></clipPath><clipPath id="3bc7a735d0"><path d="M 63 179 L 71 179 L 71 183.527344 L 63 183.527344 Z M 63 179 " clip-rule="nonzero"/></clipPath></defs><g clip-path="url(#eb7c58a3c2)"><g clip-path="url(#d86de80006)"><path fill="#000000" d="M 0 124.3125 L 124.695312 124.3125 L 124.695312 249.003906 L 0 249.003906 Z M 0 124.3125 " fill-opacity="1" fill-rule="nonzero"/></g></g><g clip-path="url(#58cf58bce7)"><path fill="#ffffff" d="M 44.277344 197.078125 L 84.039062 197.078125 C 84.667969 197.082031 85.292969 197.03125 85.914062 196.925781 C 86.539062 196.820312 87.144531 196.667969 87.742188 196.460938 C 88.335938 196.253906 88.910156 196 89.460938 195.695312 C 90.011719 195.390625 90.535156 195.042969 91.027344 194.652344 C 91.519531 194.257812 91.976562 193.828125 92.398438 193.359375 C 92.816406 192.890625 93.195312 192.386719 93.53125 191.855469 C 93.863281 191.320312 94.152344 190.761719 94.394531 190.179688 C 94.632812 189.597656 94.824219 189 94.964844 188.386719 L 101.191406 161.398438 C 101.238281 161.210938 101.257812 161.019531 101.257812 160.824219 C 101.261719 160.628906 101.238281 160.4375 101.195312 160.246094 C 101.152344 160.054688 101.089844 159.871094 101.003906 159.695312 C 100.921875 159.519531 100.816406 159.355469 100.695312 159.203125 C 100.574219 159.050781 100.4375 158.914062 100.285156 158.792969 C 100.132812 158.671875 99.96875 158.570312 99.792969 158.484375 C 99.617188 158.398438 99.433594 158.335938 99.246094 158.292969 C 99.054688 158.25 98.863281 158.226562 98.667969 158.226562 L 38.40625 158.226562 L 36.4375 149.863281 C 36.371094 149.578125 36.261719 149.316406 36.105469 149.066406 C 35.945312 148.820312 35.753906 148.609375 35.523438 148.425781 C 35.296875 148.246094 35.042969 148.105469 34.769531 148.011719 C 34.492188 147.914062 34.207031 147.867188 33.917969 147.867188 L 26.144531 147.867188 C 25.800781 147.867188 25.472656 147.933594 25.15625 148.0625 C 24.835938 148.195312 24.558594 148.382812 24.316406 148.625 C 24.070312 148.867188 23.882812 149.148438 23.753906 149.464844 C 23.621094 149.785156 23.554688 150.113281 23.554688 150.457031 C 23.554688 150.800781 23.621094 151.132812 23.753906 151.449219 C 23.882812 151.765625 24.070312 152.046875 24.316406 152.289062 C 24.558594 152.53125 24.835938 152.71875 25.15625 152.851562 C 25.472656 152.980469 25.800781 153.046875 26.144531 153.046875 L 31.863281 153.046875 L 41.167969 192.5625 C 40.765625 192.738281 40.378906 192.949219 40.011719 193.195312 C 39.644531 193.441406 39.296875 193.714844 38.976562 194.015625 C 38.65625 194.320312 38.363281 194.648438 38.097656 195 C 37.832031 195.351562 37.597656 195.726562 37.398438 196.121094 C 37.195312 196.511719 37.027344 196.917969 36.894531 197.339844 C 36.761719 197.761719 36.667969 198.191406 36.609375 198.628906 C 36.550781 199.066406 36.527344 199.503906 36.542969 199.945312 C 36.558594 200.386719 36.613281 200.824219 36.703125 201.257812 C 36.792969 201.691406 36.917969 202.109375 37.082031 202.523438 C 37.242188 202.933594 37.441406 203.328125 37.667969 203.703125 C 37.898438 204.082031 38.15625 204.4375 38.449219 204.769531 C 38.738281 205.101562 39.054688 205.410156 39.394531 205.6875 C 39.738281 205.96875 40.101562 206.214844 40.484375 206.433594 C 40.871094 206.648438 41.269531 206.832031 41.6875 206.984375 C 42.101562 207.132812 42.527344 207.246094 42.960938 207.320312 C 43.398438 207.398438 43.835938 207.4375 44.277344 207.4375 L 93.488281 207.4375 C 93.832031 207.4375 94.160156 207.371094 94.480469 207.242188 C 94.796875 207.109375 95.074219 206.921875 95.320312 206.679688 C 95.5625 206.4375 95.75 206.15625 95.878906 205.839844 C 96.011719 205.523438 96.078125 205.191406 96.078125 204.847656 C 96.078125 204.503906 96.011719 204.175781 95.878906 203.855469 C 95.75 203.539062 95.5625 203.261719 95.320312 203.015625 C 95.074219 202.773438 94.796875 202.585938 94.480469 202.457031 C 94.160156 202.324219 93.832031 202.257812 93.488281 202.257812 L 44.277344 202.257812 C 43.933594 202.257812 43.601562 202.191406 43.285156 202.0625 C 42.96875 201.929688 42.6875 201.742188 42.445312 201.5 C 42.203125 201.257812 42.015625 200.976562 41.882812 200.660156 C 41.753906 200.34375 41.6875 200.011719 41.6875 199.667969 C 41.6875 199.324219 41.753906 198.996094 41.882812 198.675781 C 42.015625 198.359375 42.203125 198.078125 42.445312 197.835938 C 42.6875 197.59375 42.96875 197.40625 43.285156 197.277344 C 43.601562 197.144531 43.933594 197.078125 44.277344 197.078125 Z M 95.410156 163.40625 L 89.914062 187.21875 C 89.765625 187.886719 89.507812 188.507812 89.144531 189.085938 C 88.78125 189.664062 88.332031 190.167969 87.800781 190.59375 C 87.265625 191.019531 86.675781 191.34375 86.03125 191.566406 C 85.386719 191.789062 84.722656 191.902344 84.039062 191.898438 L 46.328125 191.898438 L 39.613281 163.40625 Z M 95.410156 163.40625 " fill-opacity="1" fill-rule="nonzero"/></g><g clip-path="url(#a15ad823eb)"><path fill="#ffffff" d="M 49.457031 210.027344 C 48.945312 210.027344 48.441406 210.078125 47.941406 210.179688 C 47.441406 210.277344 46.953125 210.425781 46.484375 210.621094 C 46.011719 210.816406 45.5625 211.054688 45.140625 211.339844 C 44.714844 211.621094 44.324219 211.945312 43.960938 212.304688 C 43.601562 212.664062 43.28125 213.058594 42.996094 213.480469 C 42.710938 213.90625 42.472656 214.355469 42.277344 214.824219 C 42.082031 215.296875 41.933594 215.78125 41.835938 216.28125 C 41.734375 216.785156 41.6875 217.289062 41.6875 217.796875 C 41.6875 218.308594 41.734375 218.8125 41.835938 219.316406 C 41.933594 219.816406 42.082031 220.300781 42.277344 220.773438 C 42.472656 221.242188 42.710938 221.691406 42.996094 222.117188 C 43.28125 222.539062 43.601562 222.933594 43.960938 223.292969 C 44.324219 223.652344 44.714844 223.976562 45.140625 224.257812 C 45.5625 224.542969 46.011719 224.78125 46.484375 224.976562 C 46.953125 225.171875 47.441406 225.320312 47.941406 225.417969 C 48.441406 225.519531 48.945312 225.570312 49.457031 225.570312 C 49.964844 225.570312 50.472656 225.519531 50.972656 225.417969 C 51.472656 225.320312 51.957031 225.171875 52.429688 224.976562 C 52.902344 224.78125 53.347656 224.542969 53.773438 224.257812 C 54.199219 223.976562 54.589844 223.652344 54.949219 223.292969 C 55.3125 222.933594 55.632812 222.539062 55.917969 222.117188 C 56.199219 221.691406 56.441406 221.242188 56.636719 220.773438 C 56.832031 220.300781 56.976562 219.816406 57.078125 219.316406 C 57.175781 218.8125 57.226562 218.308594 57.226562 217.796875 C 57.226562 217.289062 57.175781 216.785156 57.078125 216.28125 C 56.976562 215.78125 56.832031 215.296875 56.636719 214.824219 C 56.441406 214.355469 56.199219 213.90625 55.917969 213.480469 C 55.632812 213.058594 55.3125 212.664062 54.949219 212.304688 C 54.589844 211.945312 54.199219 211.621094 53.773438 211.339844 C 53.347656 211.054688 52.902344 210.816406 52.429688 210.621094 C 51.957031 210.425781 51.472656 210.277344 50.972656 210.179688 C 50.472656 210.078125 49.964844 210.027344 49.457031 210.027344 Z M 49.457031 220.390625 C 49.113281 220.390625 48.78125 220.324219 48.464844 220.191406 C 48.148438 220.058594 47.867188 219.875 47.625 219.628906 C 47.382812 219.386719 47.195312 219.105469 47.0625 218.789062 C 46.933594 218.472656 46.867188 218.140625 46.867188 217.796875 C 46.867188 217.457031 46.933594 217.125 47.0625 216.808594 C 47.195312 216.492188 47.382812 216.210938 47.625 215.96875 C 47.867188 215.722656 48.148438 215.539062 48.464844 215.40625 C 48.78125 215.273438 49.113281 215.207031 49.457031 215.207031 C 49.800781 215.207031 50.128906 215.273438 50.449219 215.40625 C 50.765625 215.539062 51.046875 215.722656 51.289062 215.96875 C 51.53125 216.210938 51.71875 216.492188 51.847656 216.808594 C 51.980469 217.125 52.046875 217.457031 52.046875 217.796875 C 52.046875 218.140625 51.980469 218.472656 51.847656 218.789062 C 51.71875 219.105469 51.53125 219.386719 51.289062 219.628906 C 51.046875 219.875 50.765625 220.058594 50.449219 220.191406 C 50.128906 220.324219 49.800781 220.390625 49.457031 220.390625 Z M 49.457031 220.390625 " fill-opacity="1" fill-rule="nonzero"/></g><g clip-path="url(#19c2236445)"><path fill="#ffffff" d="M 80.539062 210.027344 C 80.027344 210.027344 79.523438 210.078125 79.019531 210.179688 C 78.519531 210.277344 78.035156 210.425781 77.5625 210.621094 C 77.09375 210.816406 76.644531 211.054688 76.21875 211.339844 C 75.796875 211.621094 75.402344 211.945312 75.042969 212.304688 C 74.683594 212.664062 74.359375 213.058594 74.078125 213.480469 C 73.792969 213.90625 73.554688 214.355469 73.359375 214.824219 C 73.164062 215.296875 73.015625 215.78125 72.917969 216.28125 C 72.816406 216.785156 72.765625 217.289062 72.765625 217.796875 C 72.765625 218.308594 72.816406 218.8125 72.917969 219.316406 C 73.015625 219.816406 73.164062 220.300781 73.359375 220.773438 C 73.554688 221.242188 73.792969 221.691406 74.078125 222.117188 C 74.359375 222.539062 74.683594 222.933594 75.042969 223.292969 C 75.402344 223.652344 75.796875 223.976562 76.21875 224.257812 C 76.644531 224.542969 77.09375 224.78125 77.5625 224.976562 C 78.035156 225.171875 78.519531 225.320312 79.019531 225.417969 C 79.523438 225.519531 80.027344 225.570312 80.539062 225.570312 C 81.046875 225.570312 81.554688 225.519531 82.054688 225.417969 C 82.554688 225.320312 83.039062 225.171875 83.511719 224.976562 C 83.980469 224.78125 84.429688 224.542969 84.855469 224.257812 C 85.277344 223.976562 85.671875 223.652344 86.03125 223.292969 C 86.390625 222.933594 86.714844 222.539062 86.996094 222.117188 C 87.28125 221.691406 87.519531 221.242188 87.714844 220.773438 C 87.910156 220.300781 88.058594 219.816406 88.15625 219.316406 C 88.257812 218.8125 88.308594 218.308594 88.308594 217.796875 C 88.308594 217.289062 88.257812 216.785156 88.15625 216.28125 C 88.058594 215.78125 87.910156 215.296875 87.714844 214.824219 C 87.519531 214.355469 87.28125 213.90625 86.996094 213.480469 C 86.714844 213.058594 86.390625 212.664062 86.03125 212.304688 C 85.671875 211.945312 85.277344 211.621094 84.855469 211.339844 C 84.429688 211.054688 83.980469 210.816406 83.511719 210.621094 C 83.039062 210.425781 82.554688 210.277344 82.054688 210.179688 C 81.554688 210.078125 81.046875 210.027344 80.539062 210.027344 Z M 80.539062 220.390625 C 80.195312 220.390625 79.863281 220.324219 79.546875 220.191406 C 79.230469 220.058594 78.949219 219.875 78.707031 219.628906 C 78.464844 219.386719 78.277344 219.105469 78.144531 218.789062 C 78.011719 218.472656 77.945312 218.140625 77.945312 217.796875 C 77.945312 217.457031 78.011719 217.125 78.144531 216.808594 C 78.277344 216.492188 78.464844 216.210938 78.707031 215.96875 C 78.949219 215.722656 79.230469 215.539062 79.546875 215.40625 C 79.863281 215.273438 80.195312 215.207031 80.539062 215.207031 C 80.878906 215.207031 81.210938 215.273438 81.527344 215.40625 C 81.847656 215.539062 82.125 215.722656 82.367188 215.96875 C 82.613281 216.210938 82.796875 216.492188 82.929688 216.808594 C 83.0625 217.125 83.128906 217.457031 83.128906 217.796875 C 83.128906 218.140625 83.0625 218.472656 82.929688 218.789062 C 82.796875 219.105469 82.613281 219.386719 82.367188 219.628906 C 82.125 219.875 81.847656 220.058594 81.527344 220.191406 C 81.210938 220.324219 80.878906 220.390625 80.539062 220.390625 Z M 80.539062 220.390625 " fill-opacity="1" fill-rule="nonzero"/></g><g clip-path="url(#d6be124660)"><g clip-path="url(#b6392dfe8b)"><path fill="#ffffff" d="M 55.777344 166.597656 L 78.277344 166.597656 L 78.277344 189.097656 L 55.777344 189.097656 Z M 55.777344 166.597656 " fill-opacity="1" fill-rule="nonzero"/></g></g><g clip-path="url(#c062e4bd83)"><path fill="#000000" d="M 66.453125 172.625 L 66.570312 172.507812 C 66.777344 172.304688 67.101562 172.3125 67.296875 172.523438 C 67.300781 172.523438 67.300781 172.527344 67.304688 172.527344 L 73.191406 178.34375 C 73.394531 178.542969 73.402344 178.878906 73.203125 179.085938 C 73.007812 179.296875 72.683594 179.304688 72.480469 179.101562 L 66.929688 173.617188 L 61.375 179.101562 C 61.171875 179.304688 60.847656 179.296875 60.652344 179.085938 C 60.453125 178.878906 60.460938 178.542969 60.664062 178.34375 Z M 66.453125 172.625 " fill-opacity="1" fill-rule="evenodd"/></g><path fill="#000000" d="M 66.476562 176.175781 L 66.597656 176.054688 C 66.789062 175.867188 67.089844 175.875 67.273438 176.070312 C 67.273438 176.070312 67.277344 176.074219 67.277344 176.074219 L 71.6875 180.429688 C 71.875 180.617188 71.882812 180.929688 71.699219 181.121094 C 71.515625 181.316406 71.214844 181.324219 71.027344 181.136719 L 66.929688 177.089844 L 62.832031 181.136719 C 62.640625 181.324219 62.339844 181.316406 62.15625 181.121094 C 61.972656 180.929688 61.980469 180.617188 62.171875 180.429688 Z M 66.476562 176.175781 " fill-opacity="1" fill-rule="evenodd"/><g clip-path="url(#3bc7a735d0)"><path fill="#000000" d="M 66.503906 179.539062 L 66.5 179.535156 L 66.621094 179.417969 C 66.796875 179.246094 67.078125 179.25 67.25 179.433594 C 67.25 179.433594 67.25 179.4375 67.253906 179.4375 L 70.554688 182.699219 C 70.730469 182.875 70.738281 183.160156 70.566406 183.34375 C 70.398438 183.523438 70.117188 183.53125 69.9375 183.355469 L 66.929688 180.382812 L 63.917969 183.355469 C 63.738281 183.53125 63.460938 183.523438 63.289062 183.34375 C 63.121094 183.160156 63.125 182.875 63.300781 182.699219 Z M 66.503906 179.539062 " fill-opacity="1" fill-rule="evenodd"/></g><g fill="#000000" fill-opacity="1"><g transform="translate(130.360909, 203.925563)"><g><path d="M 8.84375 -15.484375 L 8.84375 -3.1875 L 25.59375 -3.1875 L 25.59375 0 L 4.96875 0 L 4.96875 -32.875 L 25.234375 -32.875 L 25.234375 -29.671875 L 8.84375 -29.671875 L 8.84375 -18.6875 L 23.296875 -18.6875 L 23.296875 -15.484375 Z M 8.84375 -15.484375 "/></g></g></g><g fill="#000000" fill-opacity="1"><g transform="translate(158.124886, 203.925563)"><g><path d="M 14.234375 0.46875 C 12.046875 0.46875 10.082031 -0.0234375 8.34375 -1.015625 C 6.601562 -2.015625 5.226562 -3.484375 4.21875 -5.421875 C 3.21875 -7.367188 2.71875 -9.691406 2.71875 -12.390625 C 2.71875 -15.097656 3.21875 -17.421875 4.21875 -19.359375 C 5.226562 -21.304688 6.601562 -22.773438 8.34375 -23.765625 C 10.082031 -24.765625 12.046875 -25.265625 14.234375 -25.265625 C 16.859375 -25.265625 18.945312 -24.769531 20.5 -23.78125 C 22.050781 -22.789062 23.171875 -21.472656 23.859375 -19.828125 L 21.359375 -18.03125 L 20.90625 -18.03125 C 20.226562 -19.394531 19.363281 -20.394531 18.3125 -21.03125 C 17.257812 -21.664062 15.898438 -21.984375 14.234375 -21.984375 C 12.703125 -21.984375 11.359375 -21.625 10.203125 -20.90625 C 9.046875 -20.1875 8.148438 -19.109375 7.515625 -17.671875 C 6.878906 -16.234375 6.5625 -14.472656 6.5625 -12.390625 C 6.5625 -10.316406 6.882812 -8.5625 7.53125 -7.125 C 8.175781 -5.695312 9.070312 -4.617188 10.21875 -3.890625 C 11.363281 -3.171875 12.703125 -2.8125 14.234375 -2.8125 C 15.953125 -2.8125 17.378906 -3.203125 18.515625 -3.984375 C 19.648438 -4.765625 20.539062 -5.992188 21.1875 -7.671875 L 21.65625 -7.671875 L 24.0625 -6.25 C 23.414062 -4.164062 22.265625 -2.523438 20.609375 -1.328125 C 18.953125 -0.128906 16.828125 0.46875 14.234375 0.46875 Z M 14.234375 0.46875 "/></g></g></g><g fill="#000000" fill-opacity="1"><g transform="translate(183.68573, 203.925563)"><g><path d="M 14.234375 0.46875 C 11.890625 0.46875 9.851562 -0.0234375 8.125 -1.015625 C 6.394531 -2.003906 5.0625 -3.460938 4.125 -5.390625 C 3.1875 -7.316406 2.71875 -9.648438 2.71875 -12.390625 C 2.71875 -15.128906 3.1875 -17.460938 4.125 -19.390625 C 5.0625 -21.328125 6.394531 -22.789062 8.125 -23.78125 C 9.851562 -24.769531 11.890625 -25.265625 14.234375 -25.265625 C 16.566406 -25.265625 18.597656 -24.769531 20.328125 -23.78125 C 22.066406 -22.789062 23.40625 -21.328125 24.34375 -19.390625 C 25.28125 -17.460938 25.75 -15.128906 25.75 -12.390625 C 25.75 -9.648438 25.28125 -7.316406 24.34375 -5.390625 C 23.40625 -3.460938 22.066406 -2.003906 20.328125 -1.015625 C 18.597656 -0.0234375 16.566406 0.46875 14.234375 0.46875 Z M 14.234375 -2.8125 C 16.703125 -2.8125 18.59375 -3.585938 19.90625 -5.140625 C 21.21875 -6.703125 21.875 -9.117188 21.875 -12.390625 C 21.875 -15.671875 21.21875 -18.085938 19.90625 -19.640625 C 18.59375 -21.203125 16.703125 -21.984375 14.234375 -21.984375 C 11.753906 -21.984375 9.851562 -21.203125 8.53125 -19.640625 C 7.21875 -18.078125 6.5625 -15.660156 6.5625 -12.390625 C 6.5625 -9.117188 7.21875 -6.703125 8.53125 -5.140625 C 9.851562 -3.585938 11.753906 -2.8125 14.234375 -2.8125 Z M 14.234375 -2.8125 "/></g></g></g><g fill="#000000" fill-opacity="1"><g transform="translate(212.14661, 203.925563)"><g><path d="M 4.3125 0 L 4.3125 -24.796875 L 7.796875 -24.796875 L 7.796875 -21.140625 L 8.28125 -21.046875 C 9.113281 -22.441406 10.125 -23.492188 11.3125 -24.203125 C 12.507812 -24.910156 13.941406 -25.265625 15.609375 -25.265625 C 17.523438 -25.265625 19.003906 -24.898438 20.046875 -24.171875 C 21.097656 -23.453125 21.914062 -22.28125 22.5 -20.65625 L 22.984375 -20.65625 C 23.835938 -22.175781 24.890625 -23.320312 26.140625 -24.09375 C 27.390625 -24.875 28.929688 -25.265625 30.765625 -25.265625 C 33.304688 -25.265625 35.203125 -24.578125 36.453125 -23.203125 C 37.703125 -21.828125 38.328125 -19.726562 38.328125 -16.90625 L 38.328125 0 L 34.671875 0 L 34.671875 -16.8125 C 34.671875 -18.613281 34.289062 -19.941406 33.53125 -20.796875 C 32.78125 -21.648438 31.5625 -22.078125 29.875 -22.078125 C 27.894531 -22.078125 26.28125 -21.359375 25.03125 -19.921875 C 23.78125 -18.484375 23.15625 -16.113281 23.15625 -12.8125 L 23.15625 0 L 19.5 0 L 19.5 -16.8125 C 19.5 -18.613281 19.117188 -19.941406 18.359375 -20.796875 C 17.597656 -21.648438 16.378906 -22.078125 14.703125 -22.078125 C 12.722656 -22.078125 11.109375 -21.378906 9.859375 -19.984375 C 8.609375 -18.585938 7.984375 -16.328125 7.984375 -13.203125 L 7.984375 0 Z M 4.3125 0 "/></g></g></g><g fill="#000000" fill-opacity="1"><g transform="translate(254.410792, 203.925563)"><g><path d="M 4.3125 0 L 4.3125 -24.796875 L 7.796875 -24.796875 L 7.796875 -21.140625 L 8.28125 -21.046875 C 9.113281 -22.441406 10.125 -23.492188 11.3125 -24.203125 C 12.507812 -24.910156 13.941406 -25.265625 15.609375 -25.265625 C 17.523438 -25.265625 19.003906 -24.898438 20.046875 -24.171875 C 21.097656 -23.453125 21.914062 -22.28125 22.5 -20.65625 L 22.984375 -20.65625 C 23.835938 -22.175781 24.890625 -23.320312 26.140625 -24.09375 C 27.390625 -24.875 28.929688 -25.265625 30.765625 -25.265625 C 33.304688 -25.265625 35.203125 -24.578125 36.453125 -23.203125 C 37.703125 -21.828125 38.328125 -19.726562 38.328125 -16.90625 L 38.328125 0 L 34.671875 0 L 34.671875 -16.8125 C 34.671875 -18.613281 34.289062 -19.941406 33.53125 -20.796875 C 32.78125 -21.648438 31.5625 -22.078125 29.875 -22.078125 C 27.894531 -22.078125 26.28125 -21.359375 25.03125 -19.921875 C 23.78125 -18.484375 23.15625 -16.113281 23.15625 -12.8125 L 23.15625 0 L 19.5 0 L 19.5 -16.8125 C 19.5 -18.613281 19.117188 -19.941406 18.359375 -20.796875 C 17.597656 -21.648438 16.378906 -22.078125 14.703125 -22.078125 C 12.722656 -22.078125 11.109375 -21.378906 9.859375 -19.984375 C 8.609375 -18.585938 7.984375 -16.328125 7.984375 -13.203125 L 7.984375 0 Z M 4.3125 0 "/></g></g></g><g fill="#000000" fill-opacity="1"><g transform="translate(296.691196, 203.925563)"><g><path d="M 16.96875 -32.875 C 19.320312 -32.875 21.332031 -32.441406 23 -31.578125 C 24.675781 -30.710938 25.941406 -29.503906 26.796875 -27.953125 C 27.648438 -26.398438 28.078125 -24.597656 28.078125 -22.546875 C 28.078125 -20.492188 27.648438 -18.695312 26.796875 -17.15625 C 25.941406 -15.613281 24.675781 -14.410156 23 -13.546875 C 21.332031 -12.679688 19.320312 -12.25 16.96875 -12.25 L 10.765625 -12.25 L 10.765625 0 L 4.265625 0 L 4.265625 -32.875 Z M 16.125 -17.40625 C 19.738281 -17.40625 21.546875 -19.117188 21.546875 -22.546875 C 21.546875 -25.992188 19.738281 -27.71875 16.125 -27.71875 L 10.765625 -27.71875 L 10.765625 -17.40625 Z M 16.125 -17.40625 "/></g></g></g><g fill="#000000" fill-opacity="1"><g transform="translate(326.725743, 203.925563)"><g><path d="M 3.578125 0 L 3.578125 -24.796875 L 9.625 -24.796875 L 9.625 -21.109375 L 10.09375 -21.015625 C 10.695312 -22.398438 11.484375 -23.414062 12.453125 -24.0625 C 13.429688 -24.707031 14.617188 -25.03125 16.015625 -25.03125 C 17.421875 -25.03125 18.488281 -24.789062 19.21875 -24.3125 L 18.171875 -18.9375 L 17.6875 -18.84375 C 17.289062 -19.007812 16.90625 -19.128906 16.53125 -19.203125 C 16.15625 -19.273438 15.695312 -19.3125 15.15625 -19.3125 C 13.414062 -19.3125 12.085938 -18.703125 11.171875 -17.484375 C 10.253906 -16.265625 9.796875 -14.304688 9.796875 -11.609375 L 9.796875 0 Z M 3.578125 0 "/></g></g></g><g fill="#000000" fill-opacity="1"><g transform="translate(346.171769, 203.925563)"><g><path d="M 14.40625 0.46875 C 11.976562 0.46875 9.847656 -0.0234375 8.015625 -1.015625 C 6.179688 -2.015625 4.753906 -3.476562 3.734375 -5.40625 C 2.722656 -7.332031 2.21875 -9.660156 2.21875 -12.390625 C 2.21875 -15.117188 2.722656 -17.445312 3.734375 -19.375 C 4.753906 -21.3125 6.179688 -22.773438 8.015625 -23.765625 C 9.847656 -24.765625 11.976562 -25.265625 14.40625 -25.265625 C 16.832031 -25.265625 18.960938 -24.765625 20.796875 -23.765625 C 22.640625 -22.773438 24.070312 -21.3125 25.09375 -19.375 C 26.113281 -17.445312 26.625 -15.117188 26.625 -12.390625 C 26.625 -9.660156 26.113281 -7.332031 25.09375 -5.40625 C 24.070312 -3.476562 22.640625 -2.015625 20.796875 -1.015625 C 18.960938 -0.0234375 16.832031 0.46875 14.40625 0.46875 Z M 14.40625 -4.8125 C 18.257812 -4.8125 20.1875 -7.335938 20.1875 -12.390625 C 20.1875 -15.015625 19.691406 -16.9375 18.703125 -18.15625 C 17.710938 -19.375 16.28125 -19.984375 14.40625 -19.984375 C 10.5625 -19.984375 8.640625 -17.453125 8.640625 -12.390625 C 8.640625 -7.335938 10.5625 -4.8125 14.40625 -4.8125 Z M 14.40625 -4.8125 "/></g></g></g></svg>